# AST/ASF file generated using VICON BodyLanguage
# -----------------------------------------------
:version 1.10
:name VICON
:units
  mass 1.0
  length 0.45
  angle deg
:documentation
   .ast/.asf automatically generated from VICON data using
   VICON BodyBuilder and BodyLanguage model FoxedUp or BRILLIANT.MOD
:root
   order TX TY TZ RX RY RZ
   axis XYZ
   position 0 0 0  
   orientation 0 0 0 
:bonedata
  begin
     id 1 
     name lhipjoint
     direction 0.521452 -0.77106 0.36545 
     length 2.0933 
     axis 0 0 0  XYZ
  end
  begin
     id 2 
     name lfemur
     direction 0.34202 -0.939693 0  
     length 6.83441  
     axis 0 0 20  XYZ
    dof rx ry rz
    limits (-160.0 20.0)
           (-70.0 70.0)
           (-60.0 70.0)
  end
  begin
     id 3 
     name ltibia
     direction 0.34202 -0.939693 0   
     length 7.28749   
     axis 0 0 20   XYZ
    dof rx
    limits (-10.0 170.0)
  end
  begin
     id 4 
     name lfoot
     direction 0.100608 -0.276418 0.955757   
     length 1.52195   
     axis -90 7.62852e-016 20   XYZ
    dof rx rz
    limits (-45.0 90.0)
           (-70.0 20.0)
  end
  begin
     id 5 
     name ltoes
     direction 1.53558e-011 -4.21907e-011 1   
     length 0.770459   
     axis -90 7.62852e-016 20   XYZ
    dof rx
    limits (-90.0 20.0)
  end
  begin
     id 6 
     name rhipjoint
     direction -0.488071 -0.788702 0.373812   
     length 2.04648  
     axis 0 0 0  XYZ 
  end
  begin
     id 7 
     name rfemur
     direction -0.34202 -0.939693 0   
     length 6.92583   
     axis 0 0 -20   XYZ
    dof rx ry rz
    limits (-160.0 20.0)
           (-70.0 70.0)
           (-70.0 60.0)
  end
  begin
     id 8 
     name rtibia
     direction -0.34202 -0.939693 0   
     length 7.41043   
     axis 0 0 -20   XYZ
    dof rx
    limits (-10.0 170.0)
 end
 begin
     id 9 
     name rfoot
     direction -0.0784433 -0.215521 0.973343   
     length 1.67708  
     axis -90 -7.62852e-016 -20   XYZ
    dof rx rz
    limits (-45.0 90.0)
           (-20.0 70.0)
  end
  begin
     id 10 
     name rtoes
     direction -1.53551e-011 -4.21842e-011 1   
     length 0.849787   
     axis -90 -7.62852e-016 -20   XYZ
    dof rx
    limits (-90.0 20.0)
  end
  begin
     id 11 
     name lowerback
     direction -0.0122332 0.997575 -0.0685192   
     length 1.98724   
     axis 0 0 0   XYZ
    dof rx ry rz
    limits (-20.0 45.0)
           (-30.0 30.0)
           (-30.0 30.0)
  end
  begin
     id 12 
     name upperback
     direction 0.0182347 0.999724 -0.0148421   
     length 1.99029   
     axis 0 0 0   XYZ
    dof rx ry rz
    limits (-20.0 45.0)
           (-30.0 30.0)
           (-30.0 30.0)
  end
  begin
     id 13 
     name thorax
     direction 0.0242908 0.99956 0.0170184   
     length 1.99573   
     axis 0 0 0   XYZ
    dof rx ry rz
    limits (-20.0 45.0)
           (-30.0 30.0)
           (-30.0 30.0)
  end
  begin
     id 14 
     name lowerneck
     direction 0.0654488 0.985533 0.156338   
     length 1.4285   
     axis 0 0 0   XYZ
    dof rx ry rz
    limits (-20.0 45.0)
           (-30.0 30.0)
           (-30.0 30.0)
  end
  begin
     id 15 
     name upperneck
     direction -0.02953 0.998556 -0.0448842   
     length 1.44709   
     axis 0 0 0   XYZ
    dof rx ry rz
    limits (-20.0 45.0)
           (-30.0 30.0)
           (-30.0 30.0)
  end
  begin
     id 16
     name head
     direction -0.0155588 0.999386 -0.0314063  
     length 1.44689  
     axis 0 0 0   XYZ
    dof rx ry rz
    limits (-20.0 45.0)
           (-30.0 30.0)
           (-30.0 30.0)
  end
  begin
     id 17 
     name lclavicle
     direction 0.968229 0.236071 -0.0824755  
     length 3.60593  
     axis 0 0 0   XYZ
    dof ry rz
    limits (-20.0 10.0)
           (0.0 20.0)
  end
  begin
     id 18 
     name lhumerus
     direction 1 -4.48968e-011 7.8138e-029   
     length 5.06035   
     axis 180 -30 -90   XYZ
    dof rx ry rz
    limits (-60.0 90.0)
           (-90.0 90.0)
           (-90.0 90.0)
  end
  begin
     id 19
     name lradius
     direction 1 -4.48967e-011 9.02887e-028   
     length 3.1478   
     axis 180 -30 -90   XYZ
    dof rx
    limits (-10.0 170.0)
  end
  begin
     id 20
     name lwrist
     direction 1 -4.48961e-011 7.20928e-028   
     length 1.5739   
     axis -5.52449e-016 90 90   XYZ
    dof ry
    limits (-180.0 0.0)
 end
  begin
     id 21 
     name lhand
     direction 1 -4.48972e-011 1.44186e-027   
     length 0.606747   
     axis -9.20027e-016 90 90   XYZ
    dof rx rz
    limits (-90.0 90.0)
           (-45.0 45.0)
  end
  begin
     id 22 
     name lfingers
     direction 1 -4.48943e-011 2.88371e-027   
     length 0.489175   
     axis -1.84005e-015 90 90   XYZ
    dof rx
    limits (0.0 90.0)
  end
  begin
     id 23
     name lthumb
     direction 0.707107 -6.34917e-011 0.707107   
     length 0.70236   
     axis -90 45 2.85299e-015   XYZ
    dof rx rz
    limits (-45.0 45.0)
           (-45.0 45.0)
  end
  begin
     id 24 
     name rclavicle
     direction -0.978165 0.207816 0.0022268   
     length 3.35425  
     axis 0 0 0   XYZ 
    dof ry rz
    limits (-10.0 20.0)
           (-20.0 0.0)
  end
  begin
     id 25 
     name rhumerus
     direction -1 -4.48964e-011 -4.02159e-027  
     length 5.12273   
     axis 180 30 90   XYZ
    dof rx ry rz
    limits (-90.0 60.0)
           (-90.0 90.0)
           (-90.0 90.0)
  end
  begin
     id 26 
     name rradius
     direction -1 -4.48966e-011 1.62746e-027   
     length 3.422   
     axis 180 30 90   XYZ
    dof rx
    limits (-10.0 170.0)
  end
  begin
     id 27 
     name rwrist
     direction -1 -4.4896e-011 7.20928e-028   
     length 1.711   
     axis -5.52449e-016 -90 -90   XYZ
    dof ry
    limits (-180.0 0.0)
  end
  begin
     id 28
     name rhand
     direction -1 -4.48979e-011 1.44186e-027   
     length 0.704599   
     axis -9.20027e-016 -90 -90   XYZ
    dof rx rz
    limits (-90.0 90.0)
           (-45.0 45.0)
  end
  begin
     id 29
     name rfingers
     direction -1 -4.48962e-011 2.88371e-027   
     length 0.568066   
     axis -1.84005e-015 -90 -90   XYZ
    dof rx
    limits (0.0 90.0)
  end
  begin
     id 30
     name rthumb
     direction -0.707107 -6.34949e-011 0.707107   
     length 0.815633   
     axis -90 -45 -2.85299e-015   XYZ
    dof rx rz
    limits (-45.0 45.0)
           (-45.0 45.0)
  end
:hierarchy
  begin
    root lhipjoint rhipjoint lowerback
    lhipjoint lfemur
    lfemur ltibia
    ltibia lfoot
    lfoot ltoes
    rhipjoint rfemur
    rfemur rtibia
    rtibia rfoot
    rfoot rtoes
    lowerback upperback
    upperback thorax
    thorax lowerneck lclavicle rclavicle
    lowerneck upperneck
    upperneck head
    lclavicle lhumerus
    lhumerus lradius
    lradius lwrist
    lwrist lhand lthumb
    lhand lfingers
    rclavicle rhumerus
    rhumerus rradius
    rradius rwrist
    rwrist rhand rthumb
    rhand rfingers
  end

#!OML:ASF E:\id_vita\Project 1\Capture day 1\Session 1\Male1.ASF
:FULLY-SPECIFIED
:DEGREES
205
root -32.7329 13.8886 -4.79485 20.0039 75.7121 -29.7647
lowerback 20.4293 3.58497 -7.64163
upperback 15.1294 4.66549 -4.28221
thorax 5.13865 2.34567 -1.0401
lowerneck -3.90193 -1.71768 2.50988
upperneck 34.9394 -1.57469 1.53405
head 12.1211 0.00389972 0.0098613
rclavicle 6.36111e-015 1.77664e-014
rhumerus 60.5319 2.54412 -65.6348
rradius 50.8746
rwrist 24.7446
rhand -43.0039 83.2471
rfingers 7.12502
rthumb -15.8621 53.8769
lclavicle 6.36111e-015 1.77664e-014
lhumerus 71.0462 -2.69238 42.473
lradius 45.3299
lwrist -26.7845
lhand -36.9404 75.7373
lfingers 7.12502
lthumb -10.0172 -105.479
rfemur -48.8357 7.73432 18.5585
rtibia 54.5777
rfoot -34.0808 -22.4309
rtoes 5.62668
lfemur -91.5482 14.0878 -20.7591
ltibia 74.894
lfoot -32.6474 5.44433
ltoes 27.7597
206
root -32.7375 13.8391 -4.75907 20.0853 75.7843 -29.2937
lowerback 20.8965 3.55773 -7.81681
upperback 15.0498 4.55008 -4.3258
thorax 4.81591 2.29035 -1.00427
lowerneck -4.07821 -1.79104 2.82104
upperneck 35.1378 -1.76509 1.64535
head 12.2408 -0.0248751 -0.02385
rclavicle -4.6118e-014 5.73991e-015
rhumerus 60.3446 2.80394 -65.9195
rradius 51.2087
rwrist 24.9665
rhand -43.1855 84.0147
rfingers 7.12502
rthumb -16.037 54.6585
lclavicle -4.6118e-014 5.73991e-015
lhumerus 70.5978 -2.60872 42.301
lradius 45.7584
lwrist -26.475
lhand -37.1864 76.0644
lfingers 7.12502
lthumb -10.2545 -105.794
rfemur -48.4203 7.30078 18.765
rtibia 54.9123
rfoot -36.2503 -21.3949
rtoes 6.32765
lfemur -91.4619 14.1285 -20.7209
ltibia 75.5474
lfoot -32.8582 5.53702
ltoes 27.7501
207
root -32.7389 13.7936 -4.72617 19.9101 75.9119 -28.9995
lowerback 21.4242 3.56213 -7.79101
upperback 15.0464 4.50839 -4.29858
thorax 4.55266 2.28248 -1.01603
lowerneck -4.08345 -1.90214 2.83086
upperneck 35.2017 -1.88756 1.55919
head 12.2665 -0.0827449 -0.0708784
rclavicle 1.59028e-015 2.13197e-014
rhumerus 60.0842 2.88774 -65.8684
rradius 51.806
rwrist 24.6727
rhand -43.135 83.9548
rfingers 7.12502
rthumb -15.9883 54.5946
lclavicle 1.59028e-015 2.13197e-014
lhumerus 70.2719 -2.63189 42.168
lradius 46.2497
lwrist -26.0787
lhand -37.3011 76.4606
lfingers 7.12502
lthumb -10.3652 -106.185
rfemur -47.8999 6.70407 19.1728
rtibia 55.2942
rfoot -37.7361 -20.7671
rtoes 6.97696
lfemur -91.2381 14.1566 -20.6235
ltibia 76.217
lfoot -33.2139 5.50964
ltoes 26.0597
208
root -32.7368 13.7461 -4.69848 19.8213 76.0471 -28.6143
lowerback 21.9285 3.55389 -7.71412
upperback 15.1071 4.47385 -4.25179
thorax 4.37727 2.27978 -1.03219
lowerneck -4.1202 -1.81366 2.80746
upperneck 35.0246 -1.76233 1.5075
head 12.199 -0.0384794 -0.0732941
rclavicle 1.27222e-014 -2.27733e-014
rhumerus 59.8358 2.86805 -65.6456
rradius 52.2566
rwrist 25.0325
rhand -43.8277 83.7541
rfingers 7.12502
rthumb -16.6554 54.4487
lclavicle 1.27222e-014 -2.27733e-014
lhumerus 70.0905 -2.6097 42.2082
lradius 46.6029
lwrist -25.8093
lhand -37.377 76.4299
lfingers 7.12502
lthumb -10.4383 -106.151
rfemur -47.3707 6.14207 19.5832
rtibia 55.7309
rfoot -38.6299 -20.7204
rtoes 7.4037
lfemur -91.0441 14.1912 -20.6262
ltibia 76.9058
lfoot -33.6238 5.68146
ltoes 26.9954
209
root -32.7374 13.7002 -4.66976 19.0754 76.1462 -28.9897
lowerback 22.4049 3.46981 -7.60155
upperback 15.0818 4.33925 -4.29764
thorax 4.12912 2.2354 -1.14944
lowerneck -4.21511 -1.7343 3.00792
upperneck 34.9622 -1.7092 1.5244
head 12.192 0.00883746 -0.0978105
rclavicle -1.74931e-014 5.479e-014
rhumerus 59.7456 3.04343 -65.9389
rradius 52.5771
rwrist 25.1607
rhand -43.5183 83.7477
rfingers 7.12502
rthumb -16.3575 54.4175
lclavicle -1.74931e-014 5.479e-014
lhumerus 69.7305 -2.46201 41.9647
lradius 46.8433
lwrist -25.6243
lhand -37.3321 76.0031
lfingers 7.12502
lthumb -10.395 -105.726
rfemur -47.0012 5.86774 20.0089
rtibia 56.2179
rfoot -39.4873 -20.5885
rtoes 7.65407
lfemur -91.0032 14.3426 -20.4629
ltibia 77.5601
lfoot -34.0068 5.7404
ltoes 24.231
210
root -32.739 13.6572 -4.64138 18.2876 76.2613 -29.3834
lowerback 22.997 3.38492 -7.55898
upperback 14.9445 4.16272 -4.40537
thorax 3.69984 2.17173 -1.2961
lowerneck -4.02986 -1.66337 3.61173
upperneck 34.9175 -1.63681 1.31992
head 12.1297 0.0886493 -0.27443
rclavicle 1.19271e-014 4.62423e-014
rhumerus 59.5123 3.30072 -66.5609
rradius 52.5595
rwrist 25.9616
rhand -43.7248 84.4431
rfingers 7.12502
rthumb -16.5562 55.1294
lclavicle 1.19271e-014 4.62423e-014
lhumerus 69.2263 -2.42161 41.4806
lradius 47.0679
lwrist -25.4754
lhand -37.0489 75.6363
lfingers 7.12502
lthumb -10.1218 -105.373
rfemur -46.6231 5.47687 20.4888
rtibia 56.7588
rfoot -40.318 -20.2666
rtoes 7.91542
lfemur -90.8668 14.441 -20.2099
ltibia 78.1559
lfoot -34.5094 5.41326
ltoes 27.6849
